
Cover:  
http://www.shotpix.com/images/04423541782647768515.jpg



Release Title: Point Break (1991)


Ratings: 7.0/10 |  
http://www.imdb.com/title/tt0102685/


Plot: An FBI agent goes undercover to catch a gang of bank robbers who may be surfers.

Director: Kathryn Bigelow

Writers: Rick King, W. Peter Iliff


Stars: Patrick Swayze, Keanu Reeves and Gary Busey


Genre: Action | Crime | Thriller

				

General
Format                         : MPEG-4
Format profile                 : Base Media / Version 2
Codec ID                       : mp42
File size                      : 698 MiB
Duration                       : 2h 2mn
Overall bit rate mode          : Variable
Overall bit rate               : 799 Kbps


Video
ID                             : 1
Format                         : AVC
Duration                       : 2h 2mn
Bit rate mode                  : Variable
Bit rate                       : 698 Kbps
Maximum bit rate               : 50.0 Mbps
Width                          : 1 280 pixels
Height                         : 544 pixels
Display aspect ratio           : 2.35:1
Frame rate mode                : Variable
Frame rate                     : 23.976 fps
Stream size                    : 609 MiB (87%)


Audio
ID                             : 2
Format                         : AAC
Format/Info                    : Advanced Audio Codec
Format profile                 : LC
Duration                       : 2h 2mn
Bit rate mode                  : Variable
Bit rate                       : 96.0 Kbps
Maximum bit rate               : 167 Kbps
Channel(s)                     : 2 channels
Channel positions              : Front: L R
Sampling rate                  : 48.0 KHz
Stream size                    : 83.8 MiB (12%)



Screens:

 
http://www.shotpix.com/images/97702665770148117689.jpg 
http://www.shotpix.com/images/24280781927383534816.jpg 
http://www.shotpix.com/images/08763859824481638641.jpg 
http://www.shotpix.com/images/86924152502544961405.jpg


Thumbs:
 
http://www.shotpix.com/images/24616019780973384596.jpg



------------------------------------------------------------------------


Notes:

* Best played on VLC Media Player.
* Install shark007 codecs in case of any kind of problem in playback (For non-VLC Media Player users).
* Alternatively, install Core AVC codecs, the fastest decoder that there is coupled with Community Center Codec Pack and play on Windows Media Player Classic.
* Read NFO
* Help in seeding this torrent as much as you can. 




Greets to: srkfan, VYTO, MgB, staff members at ExtraTorrent, TPB,KAT, 1337x, PublicHD, Ahashare,
SilverTorrent, TorrentMafia, P2PDL, and all others


Encoder Notes: Looking For Early Access To Anything You Can Provide DVDScr, R5, DVDRips, BluRay, Direct Audio, Early Music
Releases, Seedboxes, Links, Dedicated Servers anything u can provide, Advance / Promo CDs/DVDs. If You Got anything to
offer contact me at "contact@tinym.eu"


Facebook Fan Page: http: // www . facebook . com / p2pdl

                                 Enjoy!